<svg xmlns="http://www.w3.org/2000/svg" width="248" height="514" viewBox="0 0 248 514">
  <path fill="#20123a" d="M3.7 14.3l.9.5-.9-.5zM14.3 3.7l.5.9-.5-.9zm216.7 0l.5-.9-.5.9zm10.7 10.6l.9-.5-.9.5zm2.6 25.7h-1 1zm0 94.4h-1v1h1v-1zm0 35.1v-1h-1v1h1zm0 42.3h-1v1h1v-1zm0 69.9v-1h-1v1h1zm0 192.2h-1 1zm-2.6 25.7l.9.5-.9-.5zM231 510.2l.5.9-.5-.9zm-216.7 0l-.5.9.5-.9zM3.7 499.6l-.9.4.9-.4zM2.8 13.9C1.4 16.7.7 19.8.4 24 0 28 0 33.2 0 40h2c0-6.8 0-11.9.3-15.9s1-6.9 2.2-9.3l-1.7-.9zM13.9 2.8C9.1 5.2 5.2 9.1 2.8 13.9l1.8.9c2.2-4.4 5.8-8 10.2-10.2l-.9-1.8zM40 0c-6.8 0-12 0-16.1.3-4.1.3-7.3 1-10.1 2.4l.9 1.8C17.1 3.3 20 2.6 24 2.3 28.1 2 33.2 2 40 2V0zm165.3 0H40v2h165.3V0zm26.2 2.8c-2.8-1.4-5.9-2.1-10.1-2.4-4.1-.4-9.2-.4-16.1-.4v2c6.8 0 11.9 0 15.9.3s6.9 1 9.3 2.2l1-1.7zm11.1 11.1c-2.4-4.8-6.3-8.7-11.1-11.1l-.9 1.8c4.4 2.2 8 5.8 10.2 10.2l1.8-.9zm2.7 26.1c0-6.8 0-12-.3-16.1-.3-4.1-1-7.3-2.4-10.1l-1.8.9c1.2 2.4 1.9 5.3 2.2 9.3.3 4 .3 9.1.3 15.9h2zm0 94.4V40h-2v94.4h2zm.3-1h-1.2v2h1.2v-2zm2.2 2.2c0-1.2-1-2.2-2.2-2.2v2c.1 0 .2.1.2.2h2zm0 32.6v-32.6h-2v32.6h2zm-2.2 2.3c1.2 0 2.2-1 2.2-2.2h-2c0 .1-.1.2-.2.2v2zm-1.3 0h1.2v-2h-1.2v2zm1 41.3v-42.4h-2v42.4h2zm.3-1h-1.2v2h1.2v-2zm2.2 2.2c0-1.2-1-2.2-2.2-2.2v2c.1 0 .2.1.2.2h2zm0 67.5V213h-2v67.4h2zm-2.2 2.2c1.2 0 2.2-1 2.2-2.2h-2c0 .1-.1.2-.2.2v2zm-1.3 0h1.2v-2h-1.2v2zm1 191.2V281.7h-2v192.2h2zm-2.7 26.1c1.4-2.8 2.1-5.9 2.4-10.1.3-4.1.3-9.3.3-16.1h-2c0 6.8 0 11.9-.3 15.9s-1 6.9-2.2 9.3l1.8 1zm-11.1 11.1c4.8-2.4 8.7-6.3 11.1-11.1l-1.8-.9c-2.2 4.4-5.8 8-10.2 10.2l.9 1.8zm-26.2 2.8c6.8 0 12 0 16.1-.3 4.1-.3 7.3-1 10.1-2.4l-.9-1.8c-2.4 1.2-5.3 1.9-9.3 2.2-4 .3-9.1.3-15.9.3v2zm-165.3 0h165.3v-2H40v2zm-26.1-2.8c2.8 1.4 5.9 2.1 10.1 2.4 4.1.3 9.3.3 16.1.3v-2c-6.8 0-11.9 0-15.9-.3s-6.9-1-9.3-2.2l-1 1.8zM2.8 500c2.4 4.8 6.3 8.7 11.1 11.1l.9-1.8c-4.4-2.2-8-5.8-10.2-10.2l-1.8.9zM0 473.9c0 6.8 0 12 .3 16.1.3 4.1 1 7.3 2.4 10.1l1.8-.9c-1.2-2.4-1.9-5.3-2.2-9.3-.3-4-.3-9.1-.3-15.9H0zM0 40v433.9h2V40H0zm117.4-28.8c-2.1 0-3.9 1.7-3.9 3.9h2c0-1 .8-1.9 1.9-1.9v-2zm10.1 0h-10.1v2h10.1v-2zm3.9 3.9c0-2.1-1.7-3.9-3.9-3.9v2c1 0 1.9.8 1.9 1.9h2zm-3.9 3.8c2.1 0 3.9-1.7 3.9-3.9h-2c0 1-.8 1.9-1.9 1.9v2zm-10.1 0h10.1v-2h-10.1v2zm-3.9-3.8c0 2.1 1.7 3.9 3.9 3.9v-2c-1 0-1.9-.8-1.9-1.9h-2zM47.3 31.8c0 2.3-1.8 4.1-4.1 4.1v2c3.4 0 6.1-2.7 6.1-6.1h-2zm-4-4.1c2.2 0 4.1 1.8 4.1 4.1h2c0-3.4-2.7-6.1-6.1-6.1v2zm-4.1 4.1c0-2.3 1.8-4.1 4.1-4.1v-2c-3.4 0-6.1 2.7-6.1 6.1h2zm4.1 4.1c-2.2 0-4.1-1.8-4.1-4.1h-2c0 3.4 2.7 6.1 6.1 6.1v-2zm36.4 445.4c-1.7 0-3.1 1.4-3.1 3.1h2c0-.6.5-1.1 1.1-1.1v-2zm85.9 0H79.7v2h85.9v-2zm3.2 3.2c0-1.7-1.4-3.1-3.1-3.1v2c.6 0 1.1.5 1.1 1.1h2zm-3.2 3.1c1.7 0 3.1-1.4 3.1-3.1h-2c0 .6-.5 1.1-1.1 1.1v2zm-85.9 0h85.9v-2H79.7v2zm-3.1-3.1c0 1.7 1.4 3.1 3.1 3.1v-2c-.6 0-1.1-.5-1.1-1.1h-2zm2-453.5c0-.6.5-1.1 1.1-1.1v-2c-1.7 0-3.1 1.4-3.1 3.1h2zm1.1 1.2c-.6 0-1.1-.5-1.1-1.1h-2c0 1.7 1.4 3.1 3.1 3.1v-2zm85.9 0H79.7v2h85.9v-2zm1.2-1.2c0 .6-.5 1.1-1.1 1.1v2c1.7 0 3.1-1.4 3.1-3.1h-2zm-1.2-1.1c.6 0 1.1.5 1.1 1.1h2c0-1.7-1.4-3.1-3.1-3.1v2zm-85.9 0h85.9v-2H79.7v2z" opacity=".15"/>
</svg>
